<?xml version="1.0" encoding="UTF-8" standalone="no"?>
<svg width="310px" height="313px" viewBox="0 0 310 313" version="1.1" xmlns="http://www.w3.org/2000/svg" xmlns:xlink="http://www.w3.org/1999/xlink" xmlns:sketch="http://www.bohemiancoding.com/sketch/ns">
    <!-- Generator: Sketch 3.1.1 (8761) - http://www.bohemiancoding.com/sketch -->
    <title>Vector 1</title>
    <desc>Created with Sketch.</desc>
    <defs></defs>
    <g id="Page-2" stroke="none" stroke-width="1" fill="none" fill-rule="evenodd" sketch:type="MSPage">
        <path d="M69.1456875,240.970063 C81.9539375,235.737563 107.490813,226.631875 124.26325,221.678063 C134.017312,218.601125 134.017312,210.382688 134.017312,203.785188 C134.017312,198.313813 133.641937,190.248938 130.439875,183.429625 C128.2445,178.760188 125.730625,170.752188 125.178937,164.478875 C125.053813,163.0115 124.365625,161.657875 123.256563,160.691 C121.641313,159.2805 118.365312,154.11625 116.278,143.69675 C114.622937,135.449875 115.3225,133.64125 115.999312,131.900875 C116.289375,131.155813 116.568063,130.422125 116.789875,129.59175 C118.154875,124.598125 116.636312,108.201063 114.98125,99.1010625 C114.258938,95.14825 115.168938,83.90975 122.568375,74.44575 C129.2,65.9656875 139.238438,61.239375 152.046688,60.420375 L162.835875,60.409 C175.985375,61.239375 186.0295,65.9656875 192.6725,74.44575 C200.071937,83.90975 200.970562,95.14825 200.24825,99.10675 C198.604562,108.201063 197.068938,124.598125 198.433937,129.586063 C198.667125,130.422125 198.934438,131.155813 199.2245,131.900875 C199.901313,133.64125 200.600875,135.449875 198.957187,143.69675 C196.869875,154.11625 193.5825,159.2805 191.972937,160.691 C190.869563,161.657875 190.181375,163.0115 190.050562,164.478875 C189.504562,170.752188 186.996375,178.760188 184.795312,183.429625 C182.27575,188.78725 179.375125,195.925063 179.375125,203.552 C179.375125,210.1495 179.375125,218.367938 189.225875,221.473312 C205.281687,226.216688 230.938,235.026625 244.491312,240.355813 C221.866437,262.764563 190.772875,276.625 156.5,276.625 C122.545625,276.625 91.719375,263.009125 69.1456875,240.970063 C69.1456875,240.970063 91.719375,263.009125 69.1456875,240.970063 L69.1456875,240.970063 L69.1456875,240.970063 Z M156.5,26.375 C225.495063,26.375 281.625,82.5049375 281.625,151.5 C281.625,181.854188 270.7505,209.711563 252.698375,231.403688 C240.225688,226.193938 210.775813,215.9735 192.547375,210.593125 C190.994687,210.104 190.750125,210.024375 190.750125,203.552 C190.750125,198.211438 192.951187,192.825375 195.095375,188.275375 C197.415875,183.32725 200.168625,175.006438 201.15825,167.53875 C203.922375,164.331 207.6875,157.995125 210.110375,145.92625 C212.231813,135.290625 211.242188,131.423125 209.831688,127.788813 C209.6895,127.40775 209.535937,127.026688 209.422188,126.651313 C208.887563,124.1545 209.62125,111.198375 211.446937,101.142875 C212.698188,94.2439375 211.12275,79.575875 201.624625,67.4444375 C195.624312,59.772 184.152625,50.3591875 163.1885,49.045375 L151.694063,49.05675 C131.08825,50.3591875 119.5995,59.772 113.599187,67.4444375 C104.10675,79.575875 102.525625,94.2439375 103.782562,101.137188 C105.613937,111.198375 106.33625,124.1545 105.813,126.600125 C105.704937,127.026688 105.545687,127.40775 105.392125,127.788813 C103.993,131.423125 102.992,135.290625 105.124813,145.92625 C107.536312,157.995125 111.301437,164.331 114.076937,167.53875 C115.055187,175.006438 117.813625,183.32725 120.1455,188.275375 C121.846063,191.892625 122.642312,196.823688 122.642312,203.785188 C122.642312,210.257563 122.39775,210.337188 120.94175,210.797875 C102.093375,216.36025 72.0918125,227.200625 60.9045,232.10325 C42.4940625,210.314438 31.375,182.184063 31.375,151.5 C31.375,82.5049375 87.510625,26.375 156.5,26.375 C156.5,26.375 87.510625,26.375 156.5,26.375 L156.5,26.375 L156.5,26.375 Z M20,152.5 C20,227.8935 81.1121875,289 156.5,289 C231.8935,289 293,227.8935 293,152.5 C293,77.1065 231.8935,16 156.5,16 C81.1121875,16 20,77.1065 20,152.5 Z" id="user-L" fill="#877878" sketch:type="MSShapeGroup"></path>
    </g>
</svg>